solid OpenSCAD_Model
  facet normal -1 0 0
    outer loop
      vertex -1.75 0 0
      vertex -1.75 0 4
      vertex -1.75 3 0
    endloop
  endfacet
  facet normal -1 0 0
    outer loop
      vertex -1.75 3 0
      vertex -1.75 0 4
      vertex -1.75 3 4
    endloop
  endfacet
  facet normal 0 -1 0
    outer loop
      vertex -1.75 0 4
      vertex -1.75 0 0
      vertex 20.25 0 0
    endloop
  endfacet
  facet normal 0 -1 0
    outer loop
      vertex 20.25 0 4
      vertex -1.75 0 4
      vertex 20.25 0 0
    endloop
  endfacet
  facet normal 0 0 -1
    outer loop
      vertex -1.75 0 0
      vertex -1.75 3 0
      vertex 20.25 0 0
    endloop
  endfacet
  facet normal 0 0 -1
    outer loop
      vertex 20.25 0 0
      vertex -1.75 3 0
      vertex 0 3 0
    endloop
  endfacet
  facet normal 0 0 -1
    outer loop
      vertex 20.25 0 0
      vertex 0 3 0
      vertex 0 18.99 0
    endloop
  endfacet
  facet normal 0 0 -1
    outer loop
      vertex 18.5 3 0
      vertex 0 18.99 0
      vertex 18.5 18.99 0
    endloop
  endfacet
  facet normal 0 0 -1
    outer loop
      vertex 20.25 0 0
      vertex 0 18.99 0
      vertex 18.5 3 0
    endloop
  endfacet
  facet normal 0 0 -1
    outer loop
      vertex 20.25 3 0
      vertex 20.25 0 0
      vertex 18.5 3 0
    endloop
  endfacet
  facet normal 0 1 0
    outer loop
      vertex -1.75 3 0
      vertex -1.75 3 4
      vertex 0 3 0
    endloop
  endfacet
  facet normal 0 1 0
    outer loop
      vertex 0 3 2
      vertex -1.75 3 4
      vertex 20.25 3 4
    endloop
  endfacet
  facet normal 0 1 0
    outer loop
      vertex 18.5 3 0
      vertex 20.25 3 4
      vertex 20.25 3 0
    endloop
  endfacet
  facet normal 0 1 0
    outer loop
      vertex 18.5 3 2
      vertex 20.25 3 4
      vertex 18.5 3 0
    endloop
  endfacet
  facet normal 0 1 0
    outer loop
      vertex 0 3 0
      vertex -1.75 3 4
      vertex 0 3 2
    endloop
  endfacet
  facet normal 0 1 0
    outer loop
      vertex 0 3 2
      vertex 20.25 3 4
      vertex 18.5 3 2
    endloop
  endfacet
  facet normal 0 0 1
    outer loop
      vertex -1.75 3 4
      vertex -1.75 0 4
      vertex 20.25 0 4
    endloop
  endfacet
  facet normal 0 0 1
    outer loop
      vertex 20.25 3 4
      vertex -1.75 3 4
      vertex 20.25 0 4
    endloop
  endfacet
  facet normal 1 0 0
    outer loop
      vertex 20.25 0 4
      vertex 20.25 0 0
      vertex 20.25 3 0
    endloop
  endfacet
  facet normal 1 0 0
    outer loop
      vertex 20.25 3 4
      vertex 20.25 0 4
      vertex 20.25 3 0
    endloop
  endfacet
  facet normal 1 0 0
    outer loop
      vertex 18.5 3 2
      vertex 18.5 3 0
      vertex 18.5 18.99 0
    endloop
  endfacet
  facet normal 1 0 0
    outer loop
      vertex 18.5 18.99 2
      vertex 18.5 3 2
      vertex 18.5 18.99 0
    endloop
  endfacet
  facet normal 0 1 0
    outer loop
      vertex 0 18.99 0
      vertex 0 18.99 2
      vertex 18.5 18.99 0
    endloop
  endfacet
  facet normal 0 1 0
    outer loop
      vertex 18.5 18.99 0
      vertex 0 18.99 2
      vertex 18.5 18.99 2
    endloop
  endfacet
  facet normal -1 0 0
    outer loop
      vertex 0 3 0
      vertex 0 3 2
      vertex 0 18.99 0
    endloop
  endfacet
  facet normal -1 0 0
    outer loop
      vertex 0 18.99 0
      vertex 0 3 2
      vertex 0 18.99 2
    endloop
  endfacet
  facet normal 0 0 1
    outer loop
      vertex 0 18.99 2
      vertex 0 3 2
      vertex 18.5 3 2
    endloop
  endfacet
  facet normal 0 0 1
    outer loop
      vertex 18.5 18.99 2
      vertex 0 18.99 2
      vertex 18.5 3 2
    endloop
  endfacet
endsolid OpenSCAD_Model
