solid OpenSCAD_Model
  facet normal -1 0 0
    outer loop
      vertex -20 0 -1
      vertex -20 0 1
      vertex -20 5 -1
    endloop
  endfacet
  facet normal -1 0 0
    outer loop
      vertex -20 5 -1
      vertex -20 0 1
      vertex -20 5 1
    endloop
  endfacet
  facet normal -0.998027 -0.0627898 0
    outer loop
      vertex -20 0 -1
      vertex -19.9606 -0.626666 -1
      vertex -20 0 1
    endloop
  endfacet
  facet normal -0.998027 -0.0627898 0
    outer loop
      vertex -20 0 1
      vertex -19.9606 -0.626666 -1
      vertex -19.9606 -0.626666 1
    endloop
  endfacet
  facet normal 0 0 -1
    outer loop
      vertex -20 0 -1
      vertex -20 5 -1
      vertex -19.9606 -0.626666 -1
    endloop
  endfacet
  facet normal 0 0 -1
    outer loop
      vertex -19.9606 -0.626666 -1
      vertex -20 5 -1
      vertex -19.9803 5.31333 -1
    endloop
  endfacet
  facet normal 0 0 -1
    outer loop
      vertex -19.9606 -0.626666 -1
      vertex -19.9803 5.31333 -1
      vertex -19.9215 5.62172 -1
    endloop
  endfacet
  facet normal 0 0 -1
    outer loop
      vertex -19.9606 -0.626666 -1
      vertex -19.9215 5.62172 -1
      vertex -19.8244 5.92031 -1
    endloop
  endfacet
  facet normal 0 0 -1
    outer loop
      vertex -19.9606 -0.626666 -1
      vertex -19.8244 5.92031 -1
      vertex -19.6908 6.20438 -1
    endloop
  endfacet
  facet normal 0 0 -1
    outer loop
      vertex -19.9606 -0.626666 -1
      vertex -19.6908 6.20438 -1
      vertex -19.5225 6.46946 -1
    endloop
  endfacet
  facet normal 0 0 -1
    outer loop
      vertex -19.9606 -0.626666 -1
      vertex -19.5225 6.46946 -1
      vertex -19.3224 6.71137 -1
    endloop
  endfacet
  facet normal 0 0 -1
    outer loop
      vertex -19.9606 -0.626666 -1
      vertex -19.3224 6.71137 -1
      vertex -19.0936 6.92628 -1
    endloop
  endfacet
  facet normal 0 0 -1
    outer loop
      vertex -19.9606 -0.626666 -1
      vertex -19.0936 6.92628 -1
      vertex -18.8396 7.11082 -1
    endloop
  endfacet
  facet normal 0 0 -1
    outer loop
      vertex -19.9606 -0.626666 -1
      vertex -18.8396 7.11082 -1
      vertex -18.5644 7.26207 -1
    endloop
  endfacet
  facet normal 0 0 -1
    outer loop
      vertex -19.9606 -0.626666 -1
      vertex -18.5644 7.26207 -1
      vertex -18.2725 7.37764 -1
    endloop
  endfacet
  facet normal 0 0 -1
    outer loop
      vertex -19.9606 -0.626666 -1
      vertex -18.2725 7.37764 -1
      vertex -17.9685 7.45572 -1
    endloop
  endfacet
  facet normal 0 0 -1
    outer loop
      vertex -19.9606 -0.626666 -1
      vertex -17.9685 7.45572 -1
      vertex -17.657 7.49507 -1
    endloop
  endfacet
  facet normal 0 0 -1
    outer loop
      vertex -19.9606 -0.626666 -1
      vertex -17.657 7.49507 -1
      vertex -17.343 7.49507 -1
    endloop
  endfacet
  facet normal 0 0 -1
    outer loop
      vertex -19.9606 -0.626666 -1
      vertex -17.343 7.49507 -1
      vertex -17.0315 7.45572 -1
    endloop
  endfacet
  facet normal 0 0 -1
    outer loop
      vertex -19.9606 -0.626666 -1
      vertex -17.0315 7.45572 -1
      vertex -16.7275 7.37764 -1
    endloop
  endfacet
  facet normal 0 0 -1
    outer loop
      vertex -19.9606 -0.626666 -1
      vertex -16.7275 7.37764 -1
      vertex -16.4356 7.26207 -1
    endloop
  endfacet
  facet normal 0 0 -1
    outer loop
      vertex -19.9606 -0.626666 -1
      vertex -16.4356 7.26207 -1
      vertex -16.1604 7.11082 -1
    endloop
  endfacet
  facet normal 0 0 -1
    outer loop
      vertex -19.9606 -0.626666 -1
      vertex -16.1604 7.11082 -1
      vertex -15.9064 6.92628 -1
    endloop
  endfacet
  facet normal 0 0 -1
    outer loop
      vertex -19.9606 -0.626666 -1
      vertex -15.9064 6.92628 -1
      vertex -15.6776 6.71137 -1
    endloop
  endfacet
  facet normal 0 0 -1
    outer loop
      vertex -19.9606 -0.626666 -1
      vertex -15.6776 6.71137 -1
      vertex -15.4775 6.46946 -1
    endloop
  endfacet
  facet normal 0 0 -1
    outer loop
      vertex -19.9606 -0.626666 -1
      vertex -15.4775 6.46946 -1
      vertex -15.3092 6.20438 -1
    endloop
  endfacet
  facet normal 0 0 -1
    outer loop
      vertex -19.9606 -0.626666 -1
      vertex -15.3092 6.20438 -1
      vertex -15.1756 5.92031 -1
    endloop
  endfacet
  facet normal 0 0 -1
    outer loop
      vertex -19.9606 -0.626666 -1
      vertex -15.1756 5.92031 -1
      vertex -15.0785 5.62172 -1
    endloop
  endfacet
  facet normal 0 0 -1
    outer loop
      vertex -19.9606 -0.626666 -1
      vertex -15.0785 5.62172 -1
      vertex -15.0197 5.31333 -1
    endloop
  endfacet
  facet normal 0 0 -1
    outer loop
      vertex -19.9606 -0.626666 -1
      vertex -15.0197 5.31333 -1
      vertex -15 5 -1
    endloop
  endfacet
  facet normal 0 0 -1
    outer loop
      vertex -19.9606 -0.626666 -1
      vertex -15 5 -1
      vertex -15 0.7 -1
    endloop
  endfacet
  facet normal 0 0 -1
    outer loop
      vertex -19.9606 -0.626666 -1
      vertex -15 0.7 -1
      vertex 15 0.7 -1
    endloop
  endfacet
  facet normal 0 0 -1
    outer loop
      vertex 15 5 -1
      vertex 15.0197 5.31333 -1
      vertex 15 0.7 -1
    endloop
  endfacet
  facet normal 0 0 -1
    outer loop
      vertex 15 0.7 -1
      vertex 15.0197 5.31333 -1
      vertex 15.0785 5.62172 -1
    endloop
  endfacet
  facet normal 0 0 -1
    outer loop
      vertex 15 0.7 -1
      vertex 15.0785 5.62172 -1
      vertex 15.1756 5.92031 -1
    endloop
  endfacet
  facet normal 0 0 -1
    outer loop
      vertex 15 0.7 -1
      vertex 15.1756 5.92031 -1
      vertex 15.3092 6.20438 -1
    endloop
  endfacet
  facet normal 0 0 -1
    outer loop
      vertex 15 0.7 -1
      vertex 15.3092 6.20438 -1
      vertex 15.4775 6.46946 -1
    endloop
  endfacet
  facet normal 0 0 -1
    outer loop
      vertex 15 0.7 -1
      vertex 15.4775 6.46946 -1
      vertex 15.6776 6.71137 -1
    endloop
  endfacet
  facet normal 0 0 -1
    outer loop
      vertex 15 0.7 -1
      vertex 15.6776 6.71137 -1
      vertex 15.9064 6.92628 -1
    endloop
  endfacet
  facet normal 0 0 -1
    outer loop
      vertex 15 0.7 -1
      vertex 15.9064 6.92628 -1
      vertex 16.1604 7.11082 -1
    endloop
  endfacet
  facet normal 0 0 -1
    outer loop
      vertex 15 0.7 -1
      vertex 16.1604 7.11082 -1
      vertex 16.4356 7.26207 -1
    endloop
  endfacet
  facet normal 0 0 -1
    outer loop
      vertex 15 0.7 -1
      vertex 16.4356 7.26207 -1
      vertex 16.7275 7.37764 -1
    endloop
  endfacet
  facet normal 0 0 -1
    outer loop
      vertex 15 0.7 -1
      vertex 16.7275 7.37764 -1
      vertex 17.0315 7.45572 -1
    endloop
  endfacet
  facet normal 0 0 -1
    outer loop
      vertex 15 0.7 -1
      vertex 17.0315 7.45572 -1
      vertex 17.343 7.49507 -1
    endloop
  endfacet
  facet normal 0 0 -1
    outer loop
      vertex 15 0.7 -1
      vertex 17.343 7.49507 -1
      vertex 17.657 7.49507 -1
    endloop
  endfacet
  facet normal 0 0 -1
    outer loop
      vertex 15 0.7 -1
      vertex 17.657 7.49507 -1
      vertex 17.9685 7.45572 -1
    endloop
  endfacet
  facet normal 0 0 -1
    outer loop
      vertex 15 0.7 -1
      vertex 17.9685 7.45572 -1
      vertex 18.2725 7.37764 -1
    endloop
  endfacet
  facet normal 0 0 -1
    outer loop
      vertex 15 0.7 -1
      vertex 18.2725 7.37764 -1
      vertex 18.5644 7.26207 -1
    endloop
  endfacet
  facet normal 0 0 -1
    outer loop
      vertex 15 0.7 -1
      vertex 18.5644 7.26207 -1
      vertex 18.8396 7.11082 -1
    endloop
  endfacet
  facet normal 0 0 -1
    outer loop
      vertex 15 0.7 -1
      vertex 18.8396 7.11082 -1
      vertex 19.0936 6.92628 -1
    endloop
  endfacet
  facet normal 0 0 -1
    outer loop
      vertex 15 0.7 -1
      vertex 19.0936 6.92628 -1
      vertex 19.3224 6.71137 -1
    endloop
  endfacet
  facet normal 0 0 -1
    outer loop
      vertex 15 0.7 -1
      vertex 19.3224 6.71137 -1
      vertex 19.5225 6.46946 -1
    endloop
  endfacet
  facet normal 0 0 -1
    outer loop
      vertex 15 0.7 -1
      vertex 19.5225 6.46946 -1
      vertex 19.6908 6.20438 -1
    endloop
  endfacet
  facet normal 0 0 -1
    outer loop
      vertex 15 0.7 -1
      vertex 19.6908 6.20438 -1
      vertex 19.8244 5.92031 -1
    endloop
  endfacet
  facet normal 0 0 -1
    outer loop
      vertex 15 0.7 -1
      vertex 19.8244 5.92031 -1
      vertex 19.9215 5.62172 -1
    endloop
  endfacet
  facet normal 0 0 -1
    outer loop
      vertex 15 0.7 -1
      vertex 19.9215 5.62172 -1
      vertex 19.9803 5.31333 -1
    endloop
  endfacet
  facet normal 0 0 -1
    outer loop
      vertex 15 0.7 -1
      vertex 19.9803 5.31333 -1
      vertex 20 5 -1
    endloop
  endfacet
  facet normal 0 0 -1
    outer loop
      vertex 15 0.7 -1
      vertex 20 5 -1
      vertex 20 0 -1
    endloop
  endfacet
  facet normal 0 0 -1
    outer loop
      vertex 15 0.7 -1
      vertex 20 0 -1
      vertex -19.9606 -0.626666 -1
    endloop
  endfacet
  facet normal 0 0 -1
    outer loop
      vertex -19.9606 -0.626666 -1
      vertex 20 0 -1
      vertex 19.9606 -0.626666 -1
    endloop
  endfacet
  facet normal 0 0 -1
    outer loop
      vertex 14.5744 -0.920311 -1
      vertex 19.9606 -0.626666 -1
      vertex 19.8429 -1.24345 -1
    endloop
  endfacet
  facet normal 0 0 -1
    outer loop
      vertex 14.2725 -1.46946 -1
      vertex 19.8429 -1.24345 -1
      vertex 19.6489 -1.84062 -1
    endloop
  endfacet
  facet normal 0 0 -1
    outer loop
      vertex 13.5896 -2.11082 -1
      vertex 19.6489 -1.84062 -1
      vertex 19.3815 -2.40877 -1
    endloop
  endfacet
  facet normal 0 0 -1
    outer loop
      vertex 12.25 -2.5 -1
      vertex 19.3815 -2.40877 -1
      vertex 19.0451 -2.93893 -1
    endloop
  endfacet
  facet normal 0 0 -1
    outer loop
      vertex 12.25 -2.5 -1
      vertex 16.5451 -4.75528 -1
      vertex 15.9369 -4.91144 -1
    endloop
  endfacet
  facet normal 0 0 -1
    outer loop
      vertex 12.25 -2.5 -1
      vertex 17.1289 -4.52413 -1
      vertex 16.5451 -4.75528 -1
    endloop
  endfacet
  facet normal 0 0 -1
    outer loop
      vertex 12.25 -2.5 -1
      vertex 17.6791 -4.22164 -1
      vertex 17.1289 -4.52413 -1
    endloop
  endfacet
  facet normal 0 0 -1
    outer loop
      vertex -12.25 -2.49507 -1
      vertex -12.25 -2.5 -1
      vertex -12.407 -2.49507 -1
    endloop
  endfacet
  facet normal 0 0 -1
    outer loop
      vertex -15 -4.99013 -1
      vertex 15 -5 -1
      vertex -15 -5 -1
    endloop
  endfacet
  facet normal 0 0 -1
    outer loop
      vertex -12.407 -2.49507 -1
      vertex 15 -5 -1
      vertex -15 -4.99013 -1
    endloop
  endfacet
  facet normal 0 0 -1
    outer loop
      vertex -14.5744 -0.920311 -1
      vertex -19.9606 -0.626666 -1
      vertex -14.646 -0.7 -1
    endloop
  endfacet
  facet normal 0 0 -1
    outer loop
      vertex -19.9606 -0.626666 -1
      vertex -15.314 -4.99013 -1
      vertex -15.9369 -4.91144 -1
    endloop
  endfacet
  facet normal 0 0 -1
    outer loop
      vertex -19.9606 -0.626666 -1
      vertex -15.9369 -4.91144 -1
      vertex -16.5451 -4.75528 -1
    endloop
  endfacet
  facet normal 0 0 -1
    outer loop
      vertex -19.9606 -0.626666 -1
      vertex -16.5451 -4.75528 -1
      vertex -17.1289 -4.52413 -1
    endloop
  endfacet
  facet normal 0 0 -1
    outer loop
      vertex -19.9606 -0.626666 -1
      vertex -17.1289 -4.52413 -1
      vertex -17.6791 -4.22164 -1
    endloop
  endfacet
  facet normal 0 0 -1
    outer loop
      vertex -19.9606 -0.626666 -1
      vertex -17.6791 -4.22164 -1
      vertex -18.1871 -3.85257 -1
    endloop
  endfacet
  facet normal 0 0 -1
    outer loop
      vertex -19.9606 -0.626666 -1
      vertex -18.1871 -3.85257 -1
      vertex -18.6448 -3.42274 -1
    endloop
  endfacet
  facet normal 0 0 -1
    outer loop
      vertex -19.9606 -0.626666 -1
      vertex -18.6448 -3.42274 -1
      vertex -19.0451 -2.93893 -1
    endloop
  endfacet
  facet normal 0 0 -1
    outer loop
      vertex -19.9606 -0.626666 -1
      vertex -19.0451 -2.93893 -1
      vertex -19.3815 -2.40877 -1
    endloop
  endfacet
  facet normal 0 0 -1
    outer loop
      vertex -19.9606 -0.626666 -1
      vertex -19.3815 -2.40877 -1
      vertex -19.6489 -1.84062 -1
    endloop
  endfacet
  facet normal 0 0 -1
    outer loop
      vertex -19.9606 -0.626666 -1
      vertex -19.6489 -1.84062 -1
      vertex -19.8429 -1.24345 -1
    endloop
  endfacet
  facet normal 0 0 -1
    outer loop
      vertex -19.9606 -0.626666 -1
      vertex 19.9606 -0.626666 -1
      vertex -14.646 -0.7 -1
    endloop
  endfacet
  facet normal 0 0 -1
    outer loop
      vertex 12.25 -2.5 -1
      vertex 15 -4.99013 -1
      vertex 15 -5 -1
    endloop
  endfacet
  facet normal 0 0 -1
    outer loop
      vertex -14.4408 -1.20438 -1
      vertex -19.9606 -0.626666 -1
      vertex -14.5744 -0.920311 -1
    endloop
  endfacet
  facet normal 0 0 -1
    outer loop
      vertex -14.2725 -1.46946 -1
      vertex -19.9606 -0.626666 -1
      vertex -14.4408 -1.20438 -1
    endloop
  endfacet
  facet normal 0 0 -1
    outer loop
      vertex 12.25 -2.5 -1
      vertex 15.9369 -4.91144 -1
      vertex 15.314 -4.99013 -1
    endloop
  endfacet
  facet normal 0 0 -1
    outer loop
      vertex -19.9606 -0.626666 -1
      vertex -14.2725 -1.46946 -1
      vertex -15 -4.99013 -1
    endloop
  endfacet
  facet normal 0 0 -1
    outer loop
      vertex -14.2725 -1.46946 -1
      vertex -14.0724 -1.71137 -1
      vertex -15 -4.99013 -1
    endloop
  endfacet
  facet normal 0 0 -1
    outer loop
      vertex -14.0724 -1.71137 -1
      vertex -13.8436 -1.92628 -1
      vertex -15 -4.99013 -1
    endloop
  endfacet
  facet normal 0 0 -1
    outer loop
      vertex -13.8436 -1.92628 -1
      vertex -13.5896 -2.11082 -1
      vertex -15 -4.99013 -1
    endloop
  endfacet
  facet normal 0 0 -1
    outer loop
      vertex -13.5896 -2.11082 -1
      vertex -13.3144 -2.26207 -1
      vertex -15 -4.99013 -1
    endloop
  endfacet
  facet normal 0 0 -1
    outer loop
      vertex -13.3144 -2.26207 -1
      vertex -13.0225 -2.37764 -1
      vertex -15 -4.99013 -1
    endloop
  endfacet
  facet normal 0 0 -1
    outer loop
      vertex 12.25 -2.5 -1
      vertex 19.0451 -2.93893 -1
      vertex 18.6448 -3.42274 -1
    endloop
  endfacet
  facet normal 0 0 -1
    outer loop
      vertex -13.0225 -2.37764 -1
      vertex -12.7185 -2.45572 -1
      vertex -15 -4.99013 -1
    endloop
  endfacet
  facet normal 0 0 -1
    outer loop
      vertex -12.25 -2.5 -1
      vertex 15 -5 -1
      vertex -12.407 -2.49507 -1
    endloop
  endfacet
  facet normal 0 0 -1
    outer loop
      vertex -12.7185 -2.45572 -1
      vertex -12.407 -2.49507 -1
      vertex -15 -4.99013 -1
    endloop
  endfacet
  facet normal 0 0 -1
    outer loop
      vertex 12.25 -2.5 -1
      vertex 18.6448 -3.42274 -1
      vertex 18.1871 -3.85257 -1
    endloop
  endfacet
  facet normal 0 0 -1
    outer loop
      vertex 12.25 -2.5 -1
      vertex 18.1871 -3.85257 -1
      vertex 17.6791 -4.22164 -1
    endloop
  endfacet
  facet normal 0 0 -1
    outer loop
      vertex 12.407 -2.49507 -1
      vertex 19.3815 -2.40877 -1
      vertex 12.25 -2.5 -1
    endloop
  endfacet
  facet normal 0 0 -1
    outer loop
      vertex 12.7185 -2.45572 -1
      vertex 19.3815 -2.40877 -1
      vertex 12.407 -2.49507 -1
    endloop
  endfacet
  facet normal 0 0 -1
    outer loop
      vertex 13.5896 -2.11082 -1
      vertex 19.3815 -2.40877 -1
      vertex 13.3144 -2.26207 -1
    endloop
  endfacet
  facet normal 0 0 -1
    outer loop
      vertex 12.25 -2.49507 -1
      vertex 12.407 -2.49507 -1
      vertex 12.25 -2.5 -1
    endloop
  endfacet
  facet normal 0 0 -1
    outer loop
      vertex 13.0225 -2.37764 -1
      vertex 19.3815 -2.40877 -1
      vertex 12.7185 -2.45572 -1
    endloop
  endfacet
  facet normal 0 0 -1
    outer loop
      vertex 13.3144 -2.26207 -1
      vertex 19.3815 -2.40877 -1
      vertex 13.0225 -2.37764 -1
    endloop
  endfacet
  facet normal 0 0 -1
    outer loop
      vertex 13.8436 -1.92628 -1
      vertex 19.6489 -1.84062 -1
      vertex 13.5896 -2.11082 -1
    endloop
  endfacet
  facet normal 0 0 -1
    outer loop
      vertex 14.0724 -1.71137 -1
      vertex 19.6489 -1.84062 -1
      vertex 13.8436 -1.92628 -1
    endloop
  endfacet
  facet normal 0 0 -1
    outer loop
      vertex 14.4408 -1.20438 -1
      vertex 19.8429 -1.24345 -1
      vertex 14.2725 -1.46946 -1
    endloop
  endfacet
  facet normal 0 0 -1
    outer loop
      vertex 12.25 -2.5 -1
      vertex 15.314 -4.99013 -1
      vertex 15 -4.99013 -1
    endloop
  endfacet
  facet normal 0 0 -1
    outer loop
      vertex 14.646 -0.7 -1
      vertex 19.9606 -0.626666 -1
      vertex 14.5744 -0.920311 -1
    endloop
  endfacet
  facet normal 0 0 -1
    outer loop
      vertex -14.646 -0.7 -1
      vertex 19.9606 -0.626666 -1
      vertex 14.646 -0.7 -1
    endloop
  endfacet
  facet normal 0 0 -1
    outer loop
      vertex -15.314 -4.99013 -1
      vertex -19.9606 -0.626666 -1
      vertex -15 -4.99013 -1
    endloop
  endfacet
  facet normal 0 0 -1
    outer loop
      vertex 14.5744 -0.920311 -1
      vertex 19.8429 -1.24345 -1
      vertex 14.4408 -1.20438 -1
    endloop
  endfacet
  facet normal 0 0 -1
    outer loop
      vertex 14.2725 -1.46946 -1
      vertex 19.6489 -1.84062 -1
      vertex 14.0724 -1.71137 -1
    endloop
  endfacet
  facet normal 0 0 -1
    outer loop
      vertex 12.25 -2.5 -1
      vertex 15 -5 -1
      vertex -12.25 -2.5 -1
    endloop
  endfacet
  facet normal -0.998027 0.0627898 0
    outer loop
      vertex -20 5 -1
      vertex -20 5 1
      vertex -19.9803 5.31333 -1
    endloop
  endfacet
  facet normal -0.998027 0.0627898 0
    outer loop
      vertex -19.9803 5.31333 -1
      vertex -20 5 1
      vertex -19.9803 5.31333 1
    endloop
  endfacet
  facet normal 0 0 1
    outer loop
      vertex -20 5 1
      vertex -20 0 1
      vertex -19.9606 -0.626666 1
    endloop
  endfacet
  facet normal 0 0 1
    outer loop
      vertex -19.6489 -1.84062 1
      vertex -20 5 1
      vertex -19.8429 -1.24345 1
    endloop
  endfacet
  facet normal 0 0 1
    outer loop
      vertex -19.8429 -1.24345 1
      vertex -20 5 1
      vertex -19.9606 -0.626666 1
    endloop
  endfacet
  facet normal 0 0 1
    outer loop
      vertex -19.3815 -2.40877 1
      vertex -20 5 1
      vertex -19.6489 -1.84062 1
    endloop
  endfacet
  facet normal 0 0 1
    outer loop
      vertex -19.0451 -2.93893 1
      vertex -20 5 1
      vertex -19.3815 -2.40877 1
    endloop
  endfacet
  facet normal 0 0 1
    outer loop
      vertex -18.6448 -3.42274 1
      vertex -20 5 1
      vertex -19.0451 -2.93893 1
    endloop
  endfacet
  facet normal 0 0 1
    outer loop
      vertex -18.1871 -3.85257 1
      vertex -20 5 1
      vertex -18.6448 -3.42274 1
    endloop
  endfacet
  facet normal 0 0 1
    outer loop
      vertex -17.6791 -4.22164 1
      vertex -20 5 1
      vertex -18.1871 -3.85257 1
    endloop
  endfacet
  facet normal 0 0 1
    outer loop
      vertex -17.1289 -4.52413 1
      vertex -20 5 1
      vertex -17.6791 -4.22164 1
    endloop
  endfacet
  facet normal 0 0 1
    outer loop
      vertex -16.5451 -4.75528 1
      vertex -20 5 1
      vertex -17.1289 -4.52413 1
    endloop
  endfacet
  facet normal 0 0 1
    outer loop
      vertex -15.9369 -4.91144 1
      vertex -20 5 1
      vertex -16.5451 -4.75528 1
    endloop
  endfacet
  facet normal 0 0 1
    outer loop
      vertex -15.314 -4.99013 1
      vertex -20 5 1
      vertex -15.9369 -4.91144 1
    endloop
  endfacet
  facet normal 0 0 1
    outer loop
      vertex -15 -4.99013 1
      vertex -20 5 1
      vertex -15.314 -4.99013 1
    endloop
  endfacet
  facet normal 0 0 1
    outer loop
      vertex -15.25 -0.7 1
      vertex -20 5 1
      vertex -15 -4.99013 1
    endloop
  endfacet
  facet normal 0 0 1
    outer loop
      vertex 15 -5 1
      vertex -15 -4.99013 1
      vertex -15 -5 1
    endloop
  endfacet
  facet normal 0 0 1
    outer loop
      vertex -15 0.7 1
      vertex -15 5 1
      vertex -20 5 1
    endloop
  endfacet
  facet normal 0 0 1
    outer loop
      vertex -12.25 -2.49507 1
      vertex -12.407 -2.49507 1
      vertex -12.25 -2.5 1
    endloop
  endfacet
  facet normal 0 0 1
    outer loop
      vertex 20 5 1
      vertex 15 5 1
      vertex 20 0 1
    endloop
  endfacet
  facet normal 0 0 1
    outer loop
      vertex 15.0785 5.62172 1
      vertex 15.0197 5.31333 1
      vertex 19.9215 5.62172 1
    endloop
  endfacet
  facet normal 0 0 1
    outer loop
      vertex 15.1756 5.92031 1
      vertex 15.0785 5.62172 1
      vertex 19.8244 5.92031 1
    endloop
  endfacet
  facet normal 0 0 1
    outer loop
      vertex 15.3092 6.20438 1
      vertex 15.1756 5.92031 1
      vertex 19.6908 6.20438 1
    endloop
  endfacet
  facet normal 0 0 1
    outer loop
      vertex 15.4775 6.46946 1
      vertex 15.3092 6.20438 1
      vertex 19.5225 6.46946 1
    endloop
  endfacet
  facet normal 0 0 1
    outer loop
      vertex 15.6776 6.71137 1
      vertex 15.4775 6.46946 1
      vertex 19.3224 6.71137 1
    endloop
  endfacet
  facet normal 0 0 1
    outer loop
      vertex 15.9064 6.92628 1
      vertex 15.6776 6.71137 1
      vertex 19.0936 6.92628 1
    endloop
  endfacet
  facet normal 0 0 1
    outer loop
      vertex 16.1604 7.11082 1
      vertex 15.9064 6.92628 1
      vertex 18.8396 7.11082 1
    endloop
  endfacet
  facet normal 0 0 1
    outer loop
      vertex 16.4356 7.26207 1
      vertex 16.1604 7.11082 1
      vertex 18.5644 7.26207 1
    endloop
  endfacet
  facet normal 0 0 1
    outer loop
      vertex 17.343 7.49507 1
      vertex 17.0315 7.45572 1
      vertex 17.657 7.49507 1
    endloop
  endfacet
  facet normal 0 0 1
    outer loop
      vertex -14.646 -0.7 1
      vertex -15.25 -0.7 1
      vertex -15 -4.99013 1
    endloop
  endfacet
  facet normal 0 0 1
    outer loop
      vertex 17.657 7.49507 1
      vertex 16.7275 7.37764 1
      vertex 17.9685 7.45572 1
    endloop
  endfacet
  facet normal 0 0 1
    outer loop
      vertex 18.2725 7.37764 1
      vertex 16.4356 7.26207 1
      vertex 18.5644 7.26207 1
    endloop
  endfacet
  facet normal 0 0 1
    outer loop
      vertex 18.5644 7.26207 1
      vertex 16.1604 7.11082 1
      vertex 18.8396 7.11082 1
    endloop
  endfacet
  facet normal 0 0 1
    outer loop
      vertex 18.8396 7.11082 1
      vertex 15.9064 6.92628 1
      vertex 19.0936 6.92628 1
    endloop
  endfacet
  facet normal 0 0 1
    outer loop
      vertex -15.0197 5.31333 1
      vertex -15.0785 5.62172 1
      vertex -20 5 1
    endloop
  endfacet
  facet normal 0 0 1
    outer loop
      vertex 19.0936 6.92628 1
      vertex 15.6776 6.71137 1
      vertex 19.3224 6.71137 1
    endloop
  endfacet
  facet normal 0 0 1
    outer loop
      vertex 19.3224 6.71137 1
      vertex 15.4775 6.46946 1
      vertex 19.5225 6.46946 1
    endloop
  endfacet
  facet normal 0 0 1
    outer loop
      vertex 19.5225 6.46946 1
      vertex 15.3092 6.20438 1
      vertex 19.6908 6.20438 1
    endloop
  endfacet
  facet normal 0 0 1
    outer loop
      vertex 19.6908 6.20438 1
      vertex 15.1756 5.92031 1
      vertex 19.8244 5.92031 1
    endloop
  endfacet
  facet normal 0 0 1
    outer loop
      vertex 19.8244 5.92031 1
      vertex 15.0785 5.62172 1
      vertex 19.9215 5.62172 1
    endloop
  endfacet
  facet normal 0 0 1
    outer loop
      vertex 19.9215 5.62172 1
      vertex 15.0197 5.31333 1
      vertex 19.9803 5.31333 1
    endloop
  endfacet
  facet normal 0 0 1
    outer loop
      vertex 19.9803 5.31333 1
      vertex 15 5 1
      vertex 20 5 1
    endloop
  endfacet
  facet normal 0 0 1
    outer loop
      vertex 15.25 0.7 1
      vertex 19.8429 -1.24345 1
      vertex 19.9606 -0.626666 1
    endloop
  endfacet
  facet normal 0 0 1
    outer loop
      vertex 12.25 -2.5 1
      vertex -12.25 -2.5 1
      vertex 15 -5 1
    endloop
  endfacet
  facet normal 0 0 1
    outer loop
      vertex 15.0197 5.31333 1
      vertex 15 5 1
      vertex 19.9803 5.31333 1
    endloop
  endfacet
  facet normal 0 0 1
    outer loop
      vertex -15.1756 5.92031 1
      vertex -20 5 1
      vertex -15.0785 5.62172 1
    endloop
  endfacet
  facet normal 0 0 1
    outer loop
      vertex -15.3092 6.20438 1
      vertex -20 5 1
      vertex -15.1756 5.92031 1
    endloop
  endfacet
  facet normal 0 0 1
    outer loop
      vertex -15.4775 6.46946 1
      vertex -20 5 1
      vertex -15.3092 6.20438 1
    endloop
  endfacet
  facet normal 0 0 1
    outer loop
      vertex -15.6776 6.71137 1
      vertex -20 5 1
      vertex -15.4775 6.46946 1
    endloop
  endfacet
  facet normal 0 0 1
    outer loop
      vertex -15.9064 6.92628 1
      vertex -20 5 1
      vertex -15.6776 6.71137 1
    endloop
  endfacet
  facet normal 0 0 1
    outer loop
      vertex -16.1604 7.11082 1
      vertex -20 5 1
      vertex -15.9064 6.92628 1
    endloop
  endfacet
  facet normal 0 0 1
    outer loop
      vertex -16.4356 7.26207 1
      vertex -20 5 1
      vertex -16.1604 7.11082 1
    endloop
  endfacet
  facet normal 0 0 1
    outer loop
      vertex -16.7275 7.37764 1
      vertex -20 5 1
      vertex -16.4356 7.26207 1
    endloop
  endfacet
  facet normal 0 0 1
    outer loop
      vertex -17.0315 7.45572 1
      vertex -20 5 1
      vertex -16.7275 7.37764 1
    endloop
  endfacet
  facet normal 0 0 1
    outer loop
      vertex -17.343 7.49507 1
      vertex -20 5 1
      vertex -17.0315 7.45572 1
    endloop
  endfacet
  facet normal 0 0 1
    outer loop
      vertex -17.657 7.49507 1
      vertex -20 5 1
      vertex -17.343 7.49507 1
    endloop
  endfacet
  facet normal 0 0 1
    outer loop
      vertex -17.9685 7.45572 1
      vertex -20 5 1
      vertex -17.657 7.49507 1
    endloop
  endfacet
  facet normal 0 0 1
    outer loop
      vertex -18.2725 7.37764 1
      vertex -20 5 1
      vertex -17.9685 7.45572 1
    endloop
  endfacet
  facet normal 0 0 1
    outer loop
      vertex -18.5644 7.26207 1
      vertex -20 5 1
      vertex -18.2725 7.37764 1
    endloop
  endfacet
  facet normal 0 0 1
    outer loop
      vertex -18.8396 7.11082 1
      vertex -20 5 1
      vertex -18.5644 7.26207 1
    endloop
  endfacet
  facet normal 0 0 1
    outer loop
      vertex -19.0936 6.92628 1
      vertex -20 5 1
      vertex -18.8396 7.11082 1
    endloop
  endfacet
  facet normal 0 0 1
    outer loop
      vertex -19.3224 6.71137 1
      vertex -20 5 1
      vertex -19.0936 6.92628 1
    endloop
  endfacet
  facet normal 0 0 1
    outer loop
      vertex -19.5225 6.46946 1
      vertex -20 5 1
      vertex -19.3224 6.71137 1
    endloop
  endfacet
  facet normal 0 0 1
    outer loop
      vertex -19.6908 6.20438 1
      vertex -20 5 1
      vertex -19.5225 6.46946 1
    endloop
  endfacet
  facet normal 0 0 1
    outer loop
      vertex -19.8244 5.92031 1
      vertex -20 5 1
      vertex -19.6908 6.20438 1
    endloop
  endfacet
  facet normal 0 0 1
    outer loop
      vertex -19.9215 5.62172 1
      vertex -20 5 1
      vertex -19.8244 5.92031 1
    endloop
  endfacet
  facet normal 0 0 1
    outer loop
      vertex -19.9803 5.31333 1
      vertex -20 5 1
      vertex -19.9215 5.62172 1
    endloop
  endfacet
  facet normal 0 0 1
    outer loop
      vertex 15.25 0.7 1
      vertex 19.9606 -0.626666 1
      vertex 20 0 1
    endloop
  endfacet
  facet normal 0 0 1
    outer loop
      vertex -15.25 0.7 1
      vertex -20 5 1
      vertex -15.25 -0.7 1
    endloop
  endfacet
  facet normal 0 0 1
    outer loop
      vertex -15 0.7 1
      vertex -20 5 1
      vertex -15.25 0.7 1
    endloop
  endfacet
  facet normal 0 0 1
    outer loop
      vertex 15 5 1
      vertex 15.25 0.7 1
      vertex 20 0 1
    endloop
  endfacet
  facet normal 0 0 1
    outer loop
      vertex 15 5 1
      vertex 15 0.7 1
      vertex 15.25 0.7 1
    endloop
  endfacet
  facet normal 0 0 1
    outer loop
      vertex 19.8429 -1.24345 1
      vertex 15.25 -0.7 1
      vertex 19.6489 -1.84062 1
    endloop
  endfacet
  facet normal 0 0 1
    outer loop
      vertex 15.25 -0.7 1
      vertex 14.646 -0.7 1
      vertex 19.6489 -1.84062 1
    endloop
  endfacet
  facet normal 0 0 1
    outer loop
      vertex 14.646 -0.7 1
      vertex 14.5744 -0.920311 1
      vertex 19.6489 -1.84062 1
    endloop
  endfacet
  facet normal 0 0 1
    outer loop
      vertex 19.6489 -1.84062 1
      vertex 14.4408 -1.20438 1
      vertex 19.3815 -2.40877 1
    endloop
  endfacet
  facet normal 0 0 1
    outer loop
      vertex 19.3815 -2.40877 1
      vertex 14.2725 -1.46946 1
      vertex 19.0451 -2.93893 1
    endloop
  endfacet
  facet normal 0 0 1
    outer loop
      vertex 14.2725 -1.46946 1
      vertex 14.0724 -1.71137 1
      vertex 19.0451 -2.93893 1
    endloop
  endfacet
  facet normal 0 0 1
    outer loop
      vertex 19.0451 -2.93893 1
      vertex 13.8436 -1.92628 1
      vertex 18.6448 -3.42274 1
    endloop
  endfacet
  facet normal 0 0 1
    outer loop
      vertex 13.8436 -1.92628 1
      vertex 13.5896 -2.11082 1
      vertex 18.6448 -3.42274 1
    endloop
  endfacet
  facet normal 0 0 1
    outer loop
      vertex 18.6448 -3.42274 1
      vertex 13.3144 -2.26207 1
      vertex 18.1871 -3.85257 1
    endloop
  endfacet
  facet normal 0 0 1
    outer loop
      vertex 13.3144 -2.26207 1
      vertex 13.0225 -2.37764 1
      vertex 18.1871 -3.85257 1
    endloop
  endfacet
  facet normal 0 0 1
    outer loop
      vertex 13.0225 -2.37764 1
      vertex 12.7185 -2.45572 1
      vertex 18.1871 -3.85257 1
    endloop
  endfacet
  facet normal 0 0 1
    outer loop
      vertex 12.7185 -2.45572 1
      vertex 12.407 -2.49507 1
      vertex 18.1871 -3.85257 1
    endloop
  endfacet
  facet normal 0 0 1
    outer loop
      vertex 18.1871 -3.85257 1
      vertex 12.25 -2.49507 1
      vertex 17.6791 -4.22164 1
    endloop
  endfacet
  facet normal 0 0 1
    outer loop
      vertex -15 5 1
      vertex -15.0197 5.31333 1
      vertex -20 5 1
    endloop
  endfacet
  facet normal 0 0 1
    outer loop
      vertex 12.25 -2.49507 1
      vertex 12.25 -2.5 1
      vertex 17.6791 -4.22164 1
    endloop
  endfacet
  facet normal 0 0 1
    outer loop
      vertex 15 -5 1
      vertex -12.25 -2.5 1
      vertex -15 -4.99013 1
    endloop
  endfacet
  facet normal 0 0 1
    outer loop
      vertex -12.25 -2.5 1
      vertex -12.407 -2.49507 1
      vertex -15 -4.99013 1
    endloop
  endfacet
  facet normal 0 0 1
    outer loop
      vertex -12.407 -2.49507 1
      vertex -12.7185 -2.45572 1
      vertex -15 -4.99013 1
    endloop
  endfacet
  facet normal 0 0 1
    outer loop
      vertex -12.7185 -2.45572 1
      vertex -13.0225 -2.37764 1
      vertex -15 -4.99013 1
    endloop
  endfacet
  facet normal 0 0 1
    outer loop
      vertex -13.0225 -2.37764 1
      vertex -13.3144 -2.26207 1
      vertex -15 -4.99013 1
    endloop
  endfacet
  facet normal 0 0 1
    outer loop
      vertex -13.3144 -2.26207 1
      vertex -13.5896 -2.11082 1
      vertex -15 -4.99013 1
    endloop
  endfacet
  facet normal 0 0 1
    outer loop
      vertex -13.5896 -2.11082 1
      vertex -13.8436 -1.92628 1
      vertex -15 -4.99013 1
    endloop
  endfacet
  facet normal 0 0 1
    outer loop
      vertex -13.8436 -1.92628 1
      vertex -14.0724 -1.71137 1
      vertex -15 -4.99013 1
    endloop
  endfacet
  facet normal 0 0 1
    outer loop
      vertex -14.0724 -1.71137 1
      vertex -14.2725 -1.46946 1
      vertex -15 -4.99013 1
    endloop
  endfacet
  facet normal 0 0 1
    outer loop
      vertex -14.2725 -1.46946 1
      vertex -14.4408 -1.20438 1
      vertex -15 -4.99013 1
    endloop
  endfacet
  facet normal 0 0 1
    outer loop
      vertex -14.4408 -1.20438 1
      vertex -14.5744 -0.920311 1
      vertex -15 -4.99013 1
    endloop
  endfacet
  facet normal 0 0 1
    outer loop
      vertex -14.5744 -0.920311 1
      vertex -14.646 -0.7 1
      vertex -15 -4.99013 1
    endloop
  endfacet
  facet normal 0 0 1
    outer loop
      vertex 15.25 0.7 1
      vertex 15.25 -0.7 1
      vertex 19.8429 -1.24345 1
    endloop
  endfacet
  facet normal 0 0 1
    outer loop
      vertex 17.0315 7.45572 1
      vertex 16.7275 7.37764 1
      vertex 17.657 7.49507 1
    endloop
  endfacet
  facet normal 0 0 1
    outer loop
      vertex 16.7275 7.37764 1
      vertex 18.2725 7.37764 1
      vertex 17.9685 7.45572 1
    endloop
  endfacet
  facet normal 0 0 1
    outer loop
      vertex 16.7275 7.37764 1
      vertex 16.4356 7.26207 1
      vertex 18.2725 7.37764 1
    endloop
  endfacet
  facet normal 0 0 1
    outer loop
      vertex 14.5744 -0.920311 1
      vertex 14.4408 -1.20438 1
      vertex 19.6489 -1.84062 1
    endloop
  endfacet
  facet normal 0 0 1
    outer loop
      vertex 14.4408 -1.20438 1
      vertex 14.2725 -1.46946 1
      vertex 19.3815 -2.40877 1
    endloop
  endfacet
  facet normal 0 0 1
    outer loop
      vertex 14.0724 -1.71137 1
      vertex 13.8436 -1.92628 1
      vertex 19.0451 -2.93893 1
    endloop
  endfacet
  facet normal 0 0 1
    outer loop
      vertex 13.5896 -2.11082 1
      vertex 13.3144 -2.26207 1
      vertex 18.6448 -3.42274 1
    endloop
  endfacet
  facet normal 0 0 1
    outer loop
      vertex 12.407 -2.49507 1
      vertex 12.25 -2.49507 1
      vertex 18.1871 -3.85257 1
    endloop
  endfacet
  facet normal 0 0 1
    outer loop
      vertex 12.25 -2.5 1
      vertex 17.1289 -4.52413 1
      vertex 17.6791 -4.22164 1
    endloop
  endfacet
  facet normal 0 0 1
    outer loop
      vertex 12.25 -2.5 1
      vertex 16.5451 -4.75528 1
      vertex 17.1289 -4.52413 1
    endloop
  endfacet
  facet normal 0 0 1
    outer loop
      vertex 12.25 -2.5 1
      vertex 15.9369 -4.91144 1
      vertex 16.5451 -4.75528 1
    endloop
  endfacet
  facet normal 0 0 1
    outer loop
      vertex 12.25 -2.5 1
      vertex 15.314 -4.99013 1
      vertex 15.9369 -4.91144 1
    endloop
  endfacet
  facet normal 0 0 1
    outer loop
      vertex 12.25 -2.5 1
      vertex 15 -4.99013 1
      vertex 15.314 -4.99013 1
    endloop
  endfacet
  facet normal 0 0 1
    outer loop
      vertex 12.25 -2.5 1
      vertex 15 -5 1
      vertex 15 -4.99013 1
    endloop
  endfacet
  facet normal 0 0 1
    outer loop
      vertex -15.25 0.7 1
      vertex 15 0.7 1
      vertex -15 0.7 1
    endloop
  endfacet
  facet normal 0 0 1
    outer loop
      vertex -15.25 0.7 1
      vertex 15.25 0.7 1
      vertex 15 0.7 1
    endloop
  endfacet
  facet normal -0.982287 -0.187382 0
    outer loop
      vertex -19.9606 -0.626666 -1
      vertex -19.8429 -1.24345 -1
      vertex -19.9606 -0.626666 1
    endloop
  endfacet
  facet normal -0.982287 -0.187382 0
    outer loop
      vertex -19.9606 -0.626666 1
      vertex -19.8429 -1.24345 -1
      vertex -19.8429 -1.24345 1
    endloop
  endfacet
  facet normal -0.951056 -0.309018 0
    outer loop
      vertex -19.8429 -1.24345 -1
      vertex -19.6489 -1.84062 -1
      vertex -19.8429 -1.24345 1
    endloop
  endfacet
  facet normal -0.951056 -0.309018 0
    outer loop
      vertex -19.8429 -1.24345 1
      vertex -19.6489 -1.84062 -1
      vertex -19.6489 -1.84062 1
    endloop
  endfacet
  facet normal -0.904827 -0.42578 0
    outer loop
      vertex -19.6489 -1.84062 -1
      vertex -19.3815 -2.40877 -1
      vertex -19.6489 -1.84062 1
    endloop
  endfacet
  facet normal -0.904827 -0.42578 0
    outer loop
      vertex -19.6489 -1.84062 1
      vertex -19.3815 -2.40877 -1
      vertex -19.3815 -2.40877 1
    endloop
  endfacet
  facet normal -0.844328 -0.535826 0
    outer loop
      vertex -19.3815 -2.40877 -1
      vertex -19.0451 -2.93893 -1
      vertex -19.3815 -2.40877 1
    endloop
  endfacet
  facet normal -0.844328 -0.535826 0
    outer loop
      vertex -19.3815 -2.40877 1
      vertex -19.0451 -2.93893 -1
      vertex -19.0451 -2.93893 1
    endloop
  endfacet
  facet normal -0.770514 -0.637424 0
    outer loop
      vertex -19.0451 -2.93893 -1
      vertex -18.6448 -3.42274 -1
      vertex -19.0451 -2.93893 1
    endloop
  endfacet
  facet normal -0.770514 -0.637424 0
    outer loop
      vertex -19.0451 -2.93893 1
      vertex -18.6448 -3.42274 -1
      vertex -18.6448 -3.42274 1
    endloop
  endfacet
  facet normal -0.684547 -0.728969 0
    outer loop
      vertex -18.6448 -3.42274 1
      vertex -18.6448 -3.42274 -1
      vertex -18.1871 -3.85257 -1
    endloop
  endfacet
  facet normal -0.684547 -0.728969 0
    outer loop
      vertex -18.1871 -3.85257 1
      vertex -18.6448 -3.42274 1
      vertex -18.1871 -3.85257 -1
    endloop
  endfacet
  facet normal -0.587786 -0.809017 0
    outer loop
      vertex -18.1871 -3.85257 1
      vertex -18.1871 -3.85257 -1
      vertex -17.6791 -4.22164 -1
    endloop
  endfacet
  facet normal -0.587786 -0.809017 0
    outer loop
      vertex -17.6791 -4.22164 1
      vertex -18.1871 -3.85257 1
      vertex -17.6791 -4.22164 -1
    endloop
  endfacet
  facet normal -0.481753 -0.876307 0
    outer loop
      vertex -17.6791 -4.22164 1
      vertex -17.6791 -4.22164 -1
      vertex -17.1289 -4.52413 -1
    endloop
  endfacet
  facet normal -0.481753 -0.876307 0
    outer loop
      vertex -17.1289 -4.52413 1
      vertex -17.6791 -4.22164 1
      vertex -17.1289 -4.52413 -1
    endloop
  endfacet
  facet normal -0.368126 -0.929776 0
    outer loop
      vertex -17.1289 -4.52413 1
      vertex -17.1289 -4.52413 -1
      vertex -16.5451 -4.75528 -1
    endloop
  endfacet
  facet normal -0.368126 -0.929776 0
    outer loop
      vertex -16.5451 -4.75528 1
      vertex -17.1289 -4.52413 1
      vertex -16.5451 -4.75528 -1
    endloop
  endfacet
  facet normal -0.248689 -0.968583 0
    outer loop
      vertex -16.5451 -4.75528 1
      vertex -16.5451 -4.75528 -1
      vertex -15.9369 -4.91144 -1
    endloop
  endfacet
  facet normal -0.248689 -0.968583 0
    outer loop
      vertex -15.9369 -4.91144 1
      vertex -16.5451 -4.75528 1
      vertex -15.9369 -4.91144 -1
    endloop
  endfacet
  facet normal -0.125334 -0.992115 0
    outer loop
      vertex -15.9369 -4.91144 1
      vertex -15.9369 -4.91144 -1
      vertex -15.314 -4.99013 -1
    endloop
  endfacet
  facet normal -0.125334 -0.992115 0
    outer loop
      vertex -15.314 -4.99013 1
      vertex -15.9369 -4.91144 1
      vertex -15.314 -4.99013 -1
    endloop
  endfacet
  facet normal 0 -1 0
    outer loop
      vertex -15.314 -4.99013 1
      vertex -15.314 -4.99013 -1
      vertex -15 -4.99013 -1
    endloop
  endfacet
  facet normal 0 -1 0
    outer loop
      vertex -15 -4.99013 1
      vertex -15.314 -4.99013 1
      vertex -15 -4.99013 -1
    endloop
  endfacet
  facet normal -1 0 0
    outer loop
      vertex -15 -5 -1
      vertex -15 -5 1
      vertex -15 -4.99013 -1
    endloop
  endfacet
  facet normal -1 0 0
    outer loop
      vertex -15 -4.99013 -1
      vertex -15 -5 1
      vertex -15 -4.99013 1
    endloop
  endfacet
  facet normal 0 -1 0
    outer loop
      vertex -15 -5 1
      vertex -15 -5 -1
      vertex 15 -5 -1
    endloop
  endfacet
  facet normal 0 -1 0
    outer loop
      vertex 15 -5 1
      vertex -15 -5 1
      vertex 15 -5 -1
    endloop
  endfacet
  facet normal 1 0 0
    outer loop
      vertex 15 -5 1
      vertex 15 -5 -1
      vertex 15 -4.99013 -1
    endloop
  endfacet
  facet normal 1 0 0
    outer loop
      vertex 15 -4.99013 1
      vertex 15 -5 1
      vertex 15 -4.99013 -1
    endloop
  endfacet
  facet normal 0 -1 0
    outer loop
      vertex 15 -4.99013 1
      vertex 15 -4.99013 -1
      vertex 15.314 -4.99013 -1
    endloop
  endfacet
  facet normal 0 -1 0
    outer loop
      vertex 15.314 -4.99013 1
      vertex 15 -4.99013 1
      vertex 15.314 -4.99013 -1
    endloop
  endfacet
  facet normal 0.125334 -0.992115 0
    outer loop
      vertex 15.314 -4.99013 1
      vertex 15.314 -4.99013 -1
      vertex 15.9369 -4.91144 -1
    endloop
  endfacet
  facet normal 0.125334 -0.992115 0
    outer loop
      vertex 15.9369 -4.91144 1
      vertex 15.314 -4.99013 1
      vertex 15.9369 -4.91144 -1
    endloop
  endfacet
  facet normal 0.248689 -0.968583 0
    outer loop
      vertex 15.9369 -4.91144 1
      vertex 15.9369 -4.91144 -1
      vertex 16.5451 -4.75528 -1
    endloop
  endfacet
  facet normal 0.248689 -0.968583 0
    outer loop
      vertex 16.5451 -4.75528 1
      vertex 15.9369 -4.91144 1
      vertex 16.5451 -4.75528 -1
    endloop
  endfacet
  facet normal 0.368126 -0.929776 0
    outer loop
      vertex 16.5451 -4.75528 1
      vertex 16.5451 -4.75528 -1
      vertex 17.1289 -4.52413 -1
    endloop
  endfacet
  facet normal 0.368126 -0.929776 0
    outer loop
      vertex 17.1289 -4.52413 1
      vertex 16.5451 -4.75528 1
      vertex 17.1289 -4.52413 -1
    endloop
  endfacet
  facet normal 0.481753 -0.876307 0
    outer loop
      vertex 17.1289 -4.52413 1
      vertex 17.1289 -4.52413 -1
      vertex 17.6791 -4.22164 -1
    endloop
  endfacet
  facet normal 0.481753 -0.876307 0
    outer loop
      vertex 17.6791 -4.22164 1
      vertex 17.1289 -4.52413 1
      vertex 17.6791 -4.22164 -1
    endloop
  endfacet
  facet normal 0.587786 -0.809017 0
    outer loop
      vertex 17.6791 -4.22164 1
      vertex 17.6791 -4.22164 -1
      vertex 18.1871 -3.85257 -1
    endloop
  endfacet
  facet normal 0.587786 -0.809017 0
    outer loop
      vertex 18.1871 -3.85257 1
      vertex 17.6791 -4.22164 1
      vertex 18.1871 -3.85257 -1
    endloop
  endfacet
  facet normal 0.684547 -0.728969 0
    outer loop
      vertex 18.1871 -3.85257 1
      vertex 18.1871 -3.85257 -1
      vertex 18.6448 -3.42274 -1
    endloop
  endfacet
  facet normal 0.684547 -0.728969 0
    outer loop
      vertex 18.6448 -3.42274 1
      vertex 18.1871 -3.85257 1
      vertex 18.6448 -3.42274 -1
    endloop
  endfacet
  facet normal 0.770514 -0.637424 0
    outer loop
      vertex 18.6448 -3.42274 1
      vertex 18.6448 -3.42274 -1
      vertex 19.0451 -2.93893 -1
    endloop
  endfacet
  facet normal 0.770514 -0.637424 0
    outer loop
      vertex 19.0451 -2.93893 1
      vertex 18.6448 -3.42274 1
      vertex 19.0451 -2.93893 -1
    endloop
  endfacet
  facet normal 0.844328 -0.535826 0
    outer loop
      vertex 19.0451 -2.93893 1
      vertex 19.0451 -2.93893 -1
      vertex 19.3815 -2.40877 -1
    endloop
  endfacet
  facet normal 0.844328 -0.535826 0
    outer loop
      vertex 19.3815 -2.40877 1
      vertex 19.0451 -2.93893 1
      vertex 19.3815 -2.40877 -1
    endloop
  endfacet
  facet normal 0.904827 -0.42578 0
    outer loop
      vertex 19.3815 -2.40877 1
      vertex 19.3815 -2.40877 -1
      vertex 19.6489 -1.84062 -1
    endloop
  endfacet
  facet normal 0.904827 -0.42578 0
    outer loop
      vertex 19.6489 -1.84062 1
      vertex 19.3815 -2.40877 1
      vertex 19.6489 -1.84062 -1
    endloop
  endfacet
  facet normal 0.951056 -0.309018 0
    outer loop
      vertex 19.6489 -1.84062 1
      vertex 19.6489 -1.84062 -1
      vertex 19.8429 -1.24345 -1
    endloop
  endfacet
  facet normal 0.951056 -0.309018 0
    outer loop
      vertex 19.8429 -1.24345 1
      vertex 19.6489 -1.84062 1
      vertex 19.8429 -1.24345 -1
    endloop
  endfacet
  facet normal 0.982287 -0.187382 0
    outer loop
      vertex 19.8429 -1.24345 1
      vertex 19.8429 -1.24345 -1
      vertex 19.9606 -0.626666 -1
    endloop
  endfacet
  facet normal 0.982287 -0.187382 0
    outer loop
      vertex 19.9606 -0.626666 1
      vertex 19.8429 -1.24345 1
      vertex 19.9606 -0.626666 -1
    endloop
  endfacet
  facet normal 0.998027 -0.0627898 0
    outer loop
      vertex 19.9606 -0.626666 1
      vertex 19.9606 -0.626666 -1
      vertex 20 0 -1
    endloop
  endfacet
  facet normal 0.998027 -0.0627898 0
    outer loop
      vertex 20 0 1
      vertex 19.9606 -0.626666 1
      vertex 20 0 -1
    endloop
  endfacet
  facet normal 1 0 0
    outer loop
      vertex 20 0 1
      vertex 20 0 -1
      vertex 20 5 -1
    endloop
  endfacet
  facet normal 1 0 0
    outer loop
      vertex 20 5 1
      vertex 20 0 1
      vertex 20 5 -1
    endloop
  endfacet
  facet normal 0.998027 0.0627898 0
    outer loop
      vertex 20 5 -1
      vertex 19.9803 5.31333 -1
      vertex 19.9803 5.31333 1
    endloop
  endfacet
  facet normal 0.998027 0.0627898 0
    outer loop
      vertex 20 5 1
      vertex 20 5 -1
      vertex 19.9803 5.31333 1
    endloop
  endfacet
  facet normal 0.982287 0.187382 0
    outer loop
      vertex 19.9803 5.31333 -1
      vertex 19.9215 5.62172 -1
      vertex 19.9215 5.62172 1
    endloop
  endfacet
  facet normal 0.982287 0.187382 0
    outer loop
      vertex 19.9803 5.31333 1
      vertex 19.9803 5.31333 -1
      vertex 19.9215 5.62172 1
    endloop
  endfacet
  facet normal 0.951056 0.309019 0
    outer loop
      vertex 19.9215 5.62172 -1
      vertex 19.8244 5.92031 -1
      vertex 19.8244 5.92031 1
    endloop
  endfacet
  facet normal 0.951056 0.309019 0
    outer loop
      vertex 19.9215 5.62172 1
      vertex 19.9215 5.62172 -1
      vertex 19.8244 5.92031 1
    endloop
  endfacet
  facet normal 0.904828 0.425778 0
    outer loop
      vertex 19.8244 5.92031 -1
      vertex 19.6908 6.20438 -1
      vertex 19.6908 6.20438 1
    endloop
  endfacet
  facet normal 0.904828 0.425778 0
    outer loop
      vertex 19.8244 5.92031 1
      vertex 19.8244 5.92031 -1
      vertex 19.6908 6.20438 1
    endloop
  endfacet
  facet normal 0.844327 0.535829 0
    outer loop
      vertex 19.6908 6.20438 -1
      vertex 19.5225 6.46946 -1
      vertex 19.5225 6.46946 1
    endloop
  endfacet
  facet normal 0.844327 0.535829 0
    outer loop
      vertex 19.6908 6.20438 1
      vertex 19.6908 6.20438 -1
      vertex 19.5225 6.46946 1
    endloop
  endfacet
  facet normal 0.770515 0.637422 0
    outer loop
      vertex 19.5225 6.46946 -1
      vertex 19.3224 6.71137 -1
      vertex 19.3224 6.71137 1
    endloop
  endfacet
  facet normal 0.770515 0.637422 0
    outer loop
      vertex 19.5225 6.46946 1
      vertex 19.5225 6.46946 -1
      vertex 19.3224 6.71137 1
    endloop
  endfacet
  facet normal 0.684546 0.72897 0
    outer loop
      vertex 19.0936 6.92628 -1
      vertex 19.0936 6.92628 1
      vertex 19.3224 6.71137 -1
    endloop
  endfacet
  facet normal 0.684546 0.72897 0
    outer loop
      vertex 19.3224 6.71137 -1
      vertex 19.0936 6.92628 1
      vertex 19.3224 6.71137 1
    endloop
  endfacet
  facet normal 0.587786 0.809017 0
    outer loop
      vertex 18.8396 7.11082 -1
      vertex 18.8396 7.11082 1
      vertex 19.0936 6.92628 -1
    endloop
  endfacet
  facet normal 0.587786 0.809017 0
    outer loop
      vertex 19.0936 6.92628 -1
      vertex 18.8396 7.11082 1
      vertex 19.0936 6.92628 1
    endloop
  endfacet
  facet normal 0.481754 0.876307 0
    outer loop
      vertex 18.5644 7.26207 -1
      vertex 18.5644 7.26207 1
      vertex 18.8396 7.11082 -1
    endloop
  endfacet
  facet normal 0.481754 0.876307 0
    outer loop
      vertex 18.8396 7.11082 -1
      vertex 18.5644 7.26207 1
      vertex 18.8396 7.11082 1
    endloop
  endfacet
  facet normal 0.368122 0.929777 0
    outer loop
      vertex 18.2725 7.37764 -1
      vertex 18.2725 7.37764 1
      vertex 18.5644 7.26207 -1
    endloop
  endfacet
  facet normal 0.368122 0.929777 0
    outer loop
      vertex 18.5644 7.26207 -1
      vertex 18.2725 7.37764 1
      vertex 18.5644 7.26207 1
    endloop
  endfacet
  facet normal 0.248691 0.968583 0
    outer loop
      vertex 17.9685 7.45572 -1
      vertex 17.9685 7.45572 1
      vertex 18.2725 7.37764 -1
    endloop
  endfacet
  facet normal 0.248691 0.968583 0
    outer loop
      vertex 18.2725 7.37764 -1
      vertex 17.9685 7.45572 1
      vertex 18.2725 7.37764 1
    endloop
  endfacet
  facet normal 0.125334 0.992115 0
    outer loop
      vertex 17.657 7.49507 -1
      vertex 17.657 7.49507 1
      vertex 17.9685 7.45572 -1
    endloop
  endfacet
  facet normal 0.125334 0.992115 0
    outer loop
      vertex 17.9685 7.45572 -1
      vertex 17.657 7.49507 1
      vertex 17.9685 7.45572 1
    endloop
  endfacet
  facet normal 0 1 0
    outer loop
      vertex 17.343 7.49507 -1
      vertex 17.343 7.49507 1
      vertex 17.657 7.49507 -1
    endloop
  endfacet
  facet normal 0 1 0
    outer loop
      vertex 17.657 7.49507 -1
      vertex 17.343 7.49507 1
      vertex 17.657 7.49507 1
    endloop
  endfacet
  facet normal -0.125334 0.992115 0
    outer loop
      vertex 17.0315 7.45572 -1
      vertex 17.0315 7.45572 1
      vertex 17.343 7.49507 -1
    endloop
  endfacet
  facet normal -0.125334 0.992115 0
    outer loop
      vertex 17.343 7.49507 -1
      vertex 17.0315 7.45572 1
      vertex 17.343 7.49507 1
    endloop
  endfacet
  facet normal -0.248691 0.968583 0
    outer loop
      vertex 16.7275 7.37764 -1
      vertex 16.7275 7.37764 1
      vertex 17.0315 7.45572 -1
    endloop
  endfacet
  facet normal -0.248691 0.968583 0
    outer loop
      vertex 17.0315 7.45572 -1
      vertex 16.7275 7.37764 1
      vertex 17.0315 7.45572 1
    endloop
  endfacet
  facet normal -0.368122 0.929777 0
    outer loop
      vertex 16.4356 7.26207 -1
      vertex 16.4356 7.26207 1
      vertex 16.7275 7.37764 -1
    endloop
  endfacet
  facet normal -0.368122 0.929777 0
    outer loop
      vertex 16.7275 7.37764 -1
      vertex 16.4356 7.26207 1
      vertex 16.7275 7.37764 1
    endloop
  endfacet
  facet normal -0.481754 0.876307 0
    outer loop
      vertex 16.1604 7.11082 -1
      vertex 16.1604 7.11082 1
      vertex 16.4356 7.26207 -1
    endloop
  endfacet
  facet normal -0.481754 0.876307 0
    outer loop
      vertex 16.4356 7.26207 -1
      vertex 16.1604 7.11082 1
      vertex 16.4356 7.26207 1
    endloop
  endfacet
  facet normal -0.587786 0.809017 0
    outer loop
      vertex 15.9064 6.92628 -1
      vertex 15.9064 6.92628 1
      vertex 16.1604 7.11082 -1
    endloop
  endfacet
  facet normal -0.587786 0.809017 0
    outer loop
      vertex 16.1604 7.11082 -1
      vertex 15.9064 6.92628 1
      vertex 16.1604 7.11082 1
    endloop
  endfacet
  facet normal -0.684546 0.72897 0
    outer loop
      vertex 15.6776 6.71137 -1
      vertex 15.6776 6.71137 1
      vertex 15.9064 6.92628 -1
    endloop
  endfacet
  facet normal -0.684546 0.72897 0
    outer loop
      vertex 15.9064 6.92628 -1
      vertex 15.6776 6.71137 1
      vertex 15.9064 6.92628 1
    endloop
  endfacet
  facet normal -0.770515 0.637422 0
    outer loop
      vertex 15.4775 6.46946 -1
      vertex 15.4775 6.46946 1
      vertex 15.6776 6.71137 -1
    endloop
  endfacet
  facet normal -0.770515 0.637422 0
    outer loop
      vertex 15.6776 6.71137 -1
      vertex 15.4775 6.46946 1
      vertex 15.6776 6.71137 1
    endloop
  endfacet
  facet normal -0.844327 0.535829 0
    outer loop
      vertex 15.3092 6.20438 -1
      vertex 15.3092 6.20438 1
      vertex 15.4775 6.46946 -1
    endloop
  endfacet
  facet normal -0.844327 0.535829 0
    outer loop
      vertex 15.4775 6.46946 -1
      vertex 15.3092 6.20438 1
      vertex 15.4775 6.46946 1
    endloop
  endfacet
  facet normal -0.904828 0.425778 0
    outer loop
      vertex 15.1756 5.92031 -1
      vertex 15.1756 5.92031 1
      vertex 15.3092 6.20438 -1
    endloop
  endfacet
  facet normal -0.904828 0.425778 0
    outer loop
      vertex 15.3092 6.20438 -1
      vertex 15.1756 5.92031 1
      vertex 15.3092 6.20438 1
    endloop
  endfacet
  facet normal -0.951056 0.309019 0
    outer loop
      vertex 15.0785 5.62172 -1
      vertex 15.0785 5.62172 1
      vertex 15.1756 5.92031 -1
    endloop
  endfacet
  facet normal -0.951056 0.309019 0
    outer loop
      vertex 15.1756 5.92031 -1
      vertex 15.0785 5.62172 1
      vertex 15.1756 5.92031 1
    endloop
  endfacet
  facet normal -0.982287 0.187382 0
    outer loop
      vertex 15.0197 5.31333 -1
      vertex 15.0197 5.31333 1
      vertex 15.0785 5.62172 -1
    endloop
  endfacet
  facet normal -0.982287 0.187382 0
    outer loop
      vertex 15.0785 5.62172 -1
      vertex 15.0197 5.31333 1
      vertex 15.0785 5.62172 1
    endloop
  endfacet
  facet normal -0.998027 0.0627898 0
    outer loop
      vertex 15 5 -1
      vertex 15 5 1
      vertex 15.0197 5.31333 -1
    endloop
  endfacet
  facet normal -0.998027 0.0627898 0
    outer loop
      vertex 15.0197 5.31333 -1
      vertex 15 5 1
      vertex 15.0197 5.31333 1
    endloop
  endfacet
  facet normal -1 0 0
    outer loop
      vertex 15 0.7 -1
      vertex 15 0.7 1
      vertex 15 5 -1
    endloop
  endfacet
  facet normal -1 0 0
    outer loop
      vertex 15 5 -1
      vertex 15 0.7 1
      vertex 15 5 1
    endloop
  endfacet
  facet normal 0 1 0
    outer loop
      vertex 15 0.7 1
      vertex 15 0.7 -1
      vertex -15 0.7 1
    endloop
  endfacet
  facet normal 0 1 0
    outer loop
      vertex -15 0.7 1
      vertex 15 0.7 -1
      vertex -15 0.7 -1
    endloop
  endfacet
  facet normal 1 0 0
    outer loop
      vertex -15 0.7 1
      vertex -15 0.7 -1
      vertex -15 5 -1
    endloop
  endfacet
  facet normal 1 0 0
    outer loop
      vertex -15 5 1
      vertex -15 0.7 1
      vertex -15 5 -1
    endloop
  endfacet
  facet normal 0.998027 0.0627898 0
    outer loop
      vertex -15 5 -1
      vertex -15.0197 5.31333 -1
      vertex -15.0197 5.31333 1
    endloop
  endfacet
  facet normal 0.998027 0.0627898 0
    outer loop
      vertex -15 5 1
      vertex -15 5 -1
      vertex -15.0197 5.31333 1
    endloop
  endfacet
  facet normal 0.982287 0.187382 0
    outer loop
      vertex -15.0197 5.31333 -1
      vertex -15.0785 5.62172 -1
      vertex -15.0785 5.62172 1
    endloop
  endfacet
  facet normal 0.982287 0.187382 0
    outer loop
      vertex -15.0197 5.31333 1
      vertex -15.0197 5.31333 -1
      vertex -15.0785 5.62172 1
    endloop
  endfacet
  facet normal 0.951056 0.309019 0
    outer loop
      vertex -15.0785 5.62172 -1
      vertex -15.1756 5.92031 -1
      vertex -15.1756 5.92031 1
    endloop
  endfacet
  facet normal 0.951056 0.309019 0
    outer loop
      vertex -15.0785 5.62172 1
      vertex -15.0785 5.62172 -1
      vertex -15.1756 5.92031 1
    endloop
  endfacet
  facet normal 0.904828 0.425778 0
    outer loop
      vertex -15.1756 5.92031 -1
      vertex -15.3092 6.20438 -1
      vertex -15.3092 6.20438 1
    endloop
  endfacet
  facet normal 0.904828 0.425778 0
    outer loop
      vertex -15.1756 5.92031 1
      vertex -15.1756 5.92031 -1
      vertex -15.3092 6.20438 1
    endloop
  endfacet
  facet normal 0.844327 0.535829 0
    outer loop
      vertex -15.3092 6.20438 -1
      vertex -15.4775 6.46946 -1
      vertex -15.4775 6.46946 1
    endloop
  endfacet
  facet normal 0.844327 0.535829 0
    outer loop
      vertex -15.3092 6.20438 1
      vertex -15.3092 6.20438 -1
      vertex -15.4775 6.46946 1
    endloop
  endfacet
  facet normal 0.770515 0.637422 0
    outer loop
      vertex -15.4775 6.46946 -1
      vertex -15.6776 6.71137 -1
      vertex -15.6776 6.71137 1
    endloop
  endfacet
  facet normal 0.770515 0.637422 0
    outer loop
      vertex -15.4775 6.46946 1
      vertex -15.4775 6.46946 -1
      vertex -15.6776 6.71137 1
    endloop
  endfacet
  facet normal 0.684546 0.72897 0
    outer loop
      vertex -15.9064 6.92628 -1
      vertex -15.9064 6.92628 1
      vertex -15.6776 6.71137 -1
    endloop
  endfacet
  facet normal 0.684546 0.72897 0
    outer loop
      vertex -15.6776 6.71137 -1
      vertex -15.9064 6.92628 1
      vertex -15.6776 6.71137 1
    endloop
  endfacet
  facet normal 0.587786 0.809017 0
    outer loop
      vertex -16.1604 7.11082 -1
      vertex -16.1604 7.11082 1
      vertex -15.9064 6.92628 -1
    endloop
  endfacet
  facet normal 0.587786 0.809017 0
    outer loop
      vertex -15.9064 6.92628 -1
      vertex -16.1604 7.11082 1
      vertex -15.9064 6.92628 1
    endloop
  endfacet
  facet normal 0.481754 0.876307 0
    outer loop
      vertex -16.4356 7.26207 -1
      vertex -16.4356 7.26207 1
      vertex -16.1604 7.11082 -1
    endloop
  endfacet
  facet normal 0.481754 0.876307 0
    outer loop
      vertex -16.1604 7.11082 -1
      vertex -16.4356 7.26207 1
      vertex -16.1604 7.11082 1
    endloop
  endfacet
  facet normal 0.368122 0.929777 0
    outer loop
      vertex -16.7275 7.37764 -1
      vertex -16.7275 7.37764 1
      vertex -16.4356 7.26207 -1
    endloop
  endfacet
  facet normal 0.368122 0.929777 0
    outer loop
      vertex -16.4356 7.26207 -1
      vertex -16.7275 7.37764 1
      vertex -16.4356 7.26207 1
    endloop
  endfacet
  facet normal 0.248691 0.968583 0
    outer loop
      vertex -17.0315 7.45572 -1
      vertex -17.0315 7.45572 1
      vertex -16.7275 7.37764 -1
    endloop
  endfacet
  facet normal 0.248691 0.968583 0
    outer loop
      vertex -16.7275 7.37764 -1
      vertex -17.0315 7.45572 1
      vertex -16.7275 7.37764 1
    endloop
  endfacet
  facet normal 0.125334 0.992115 0
    outer loop
      vertex -17.343 7.49507 -1
      vertex -17.343 7.49507 1
      vertex -17.0315 7.45572 -1
    endloop
  endfacet
  facet normal 0.125334 0.992115 0
    outer loop
      vertex -17.0315 7.45572 -1
      vertex -17.343 7.49507 1
      vertex -17.0315 7.45572 1
    endloop
  endfacet
  facet normal 0 1 0
    outer loop
      vertex -17.657 7.49507 -1
      vertex -17.657 7.49507 1
      vertex -17.343 7.49507 -1
    endloop
  endfacet
  facet normal 0 1 0
    outer loop
      vertex -17.343 7.49507 -1
      vertex -17.657 7.49507 1
      vertex -17.343 7.49507 1
    endloop
  endfacet
  facet normal -0.125334 0.992115 0
    outer loop
      vertex -17.9685 7.45572 -1
      vertex -17.9685 7.45572 1
      vertex -17.657 7.49507 -1
    endloop
  endfacet
  facet normal -0.125334 0.992115 0
    outer loop
      vertex -17.657 7.49507 -1
      vertex -17.9685 7.45572 1
      vertex -17.657 7.49507 1
    endloop
  endfacet
  facet normal -0.248691 0.968583 0
    outer loop
      vertex -18.2725 7.37764 -1
      vertex -18.2725 7.37764 1
      vertex -17.9685 7.45572 -1
    endloop
  endfacet
  facet normal -0.248691 0.968583 0
    outer loop
      vertex -17.9685 7.45572 -1
      vertex -18.2725 7.37764 1
      vertex -17.9685 7.45572 1
    endloop
  endfacet
  facet normal -0.368122 0.929777 0
    outer loop
      vertex -18.5644 7.26207 -1
      vertex -18.5644 7.26207 1
      vertex -18.2725 7.37764 -1
    endloop
  endfacet
  facet normal -0.368122 0.929777 0
    outer loop
      vertex -18.2725 7.37764 -1
      vertex -18.5644 7.26207 1
      vertex -18.2725 7.37764 1
    endloop
  endfacet
  facet normal -0.481754 0.876307 0
    outer loop
      vertex -18.8396 7.11082 -1
      vertex -18.8396 7.11082 1
      vertex -18.5644 7.26207 -1
    endloop
  endfacet
  facet normal -0.481754 0.876307 0
    outer loop
      vertex -18.5644 7.26207 -1
      vertex -18.8396 7.11082 1
      vertex -18.5644 7.26207 1
    endloop
  endfacet
  facet normal -0.587786 0.809017 0
    outer loop
      vertex -19.0936 6.92628 -1
      vertex -19.0936 6.92628 1
      vertex -18.8396 7.11082 -1
    endloop
  endfacet
  facet normal -0.587786 0.809017 0
    outer loop
      vertex -18.8396 7.11082 -1
      vertex -19.0936 6.92628 1
      vertex -18.8396 7.11082 1
    endloop
  endfacet
  facet normal -0.684546 0.72897 0
    outer loop
      vertex -19.3224 6.71137 -1
      vertex -19.3224 6.71137 1
      vertex -19.0936 6.92628 -1
    endloop
  endfacet
  facet normal -0.684546 0.72897 0
    outer loop
      vertex -19.0936 6.92628 -1
      vertex -19.3224 6.71137 1
      vertex -19.0936 6.92628 1
    endloop
  endfacet
  facet normal -0.770515 0.637422 0
    outer loop
      vertex -19.5225 6.46946 -1
      vertex -19.5225 6.46946 1
      vertex -19.3224 6.71137 -1
    endloop
  endfacet
  facet normal -0.770515 0.637422 0
    outer loop
      vertex -19.3224 6.71137 -1
      vertex -19.5225 6.46946 1
      vertex -19.3224 6.71137 1
    endloop
  endfacet
  facet normal -0.844327 0.535829 0
    outer loop
      vertex -19.6908 6.20438 -1
      vertex -19.6908 6.20438 1
      vertex -19.5225 6.46946 -1
    endloop
  endfacet
  facet normal -0.844327 0.535829 0
    outer loop
      vertex -19.5225 6.46946 -1
      vertex -19.6908 6.20438 1
      vertex -19.5225 6.46946 1
    endloop
  endfacet
  facet normal -0.904828 0.425778 0
    outer loop
      vertex -19.8244 5.92031 -1
      vertex -19.8244 5.92031 1
      vertex -19.6908 6.20438 -1
    endloop
  endfacet
  facet normal -0.904828 0.425778 0
    outer loop
      vertex -19.6908 6.20438 -1
      vertex -19.8244 5.92031 1
      vertex -19.6908 6.20438 1
    endloop
  endfacet
  facet normal -0.951056 0.309019 0
    outer loop
      vertex -19.9215 5.62172 -1
      vertex -19.9215 5.62172 1
      vertex -19.8244 5.92031 -1
    endloop
  endfacet
  facet normal -0.951056 0.309019 0
    outer loop
      vertex -19.8244 5.92031 -1
      vertex -19.9215 5.62172 1
      vertex -19.8244 5.92031 1
    endloop
  endfacet
  facet normal -0.982287 0.187382 0
    outer loop
      vertex -19.9803 5.31333 -1
      vertex -19.9803 5.31333 1
      vertex -19.9215 5.62172 -1
    endloop
  endfacet
  facet normal -0.982287 0.187382 0
    outer loop
      vertex -19.9215 5.62172 -1
      vertex -19.9803 5.31333 1
      vertex -19.9215 5.62172 1
    endloop
  endfacet
  facet normal 0 -1 0
    outer loop
      vertex -14.646 -0.7 2
      vertex -14.646 -0.7 -1
      vertex 14.646 -0.7 -1
    endloop
  endfacet
  facet normal 0 -1 0
    outer loop
      vertex 14.646 -0.7 2
      vertex -14.646 -0.7 2
      vertex 14.646 -0.7 -1
    endloop
  endfacet
  facet normal 0.951056 0.309019 0
    outer loop
      vertex -14.646 -0.7 -1
      vertex -14.646 -0.7 2
      vertex -14.646 -0.7 1
    endloop
  endfacet
  facet normal 0.951056 0.309019 0
    outer loop
      vertex -14.5744 -0.920311 1
      vertex -14.5744 -0.920311 -1
      vertex -14.646 -0.7 1
    endloop
  endfacet
  facet normal 0.951056 0.309019 0
    outer loop
      vertex -14.5744 -0.920311 -1
      vertex -14.646 -0.7 -1
      vertex -14.646 -0.7 1
    endloop
  endfacet
  facet normal -0.951056 0.309019 0
    outer loop
      vertex 14.646 -0.7 1
      vertex 14.646 -0.7 2
      vertex 14.646 -0.7 -1
    endloop
  endfacet
  facet normal -0.951056 0.309019 0
    outer loop
      vertex 14.646 -0.7 1
      vertex 14.646 -0.7 -1
      vertex 14.5744 -0.920311 1
    endloop
  endfacet
  facet normal -0.951056 0.309019 0
    outer loop
      vertex 14.646 -0.7 -1
      vertex 14.5744 -0.920311 -1
      vertex 14.5744 -0.920311 1
    endloop
  endfacet
  facet normal -0.904828 0.425778 0
    outer loop
      vertex 14.5744 -0.920311 1
      vertex 14.5744 -0.920311 -1
      vertex 14.4408 -1.20438 1
    endloop
  endfacet
  facet normal -0.904828 0.425778 0
    outer loop
      vertex 14.4408 -1.20438 1
      vertex 14.5744 -0.920311 -1
      vertex 14.4408 -1.20438 -1
    endloop
  endfacet
  facet normal -0.844327 0.535829 0
    outer loop
      vertex 14.4408 -1.20438 1
      vertex 14.4408 -1.20438 -1
      vertex 14.2725 -1.46946 1
    endloop
  endfacet
  facet normal -0.844327 0.535829 0
    outer loop
      vertex 14.2725 -1.46946 1
      vertex 14.4408 -1.20438 -1
      vertex 14.2725 -1.46946 -1
    endloop
  endfacet
  facet normal -0.770515 0.637422 0
    outer loop
      vertex 14.2725 -1.46946 1
      vertex 14.2725 -1.46946 -1
      vertex 14.0724 -1.71137 1
    endloop
  endfacet
  facet normal -0.770515 0.637422 0
    outer loop
      vertex 14.0724 -1.71137 1
      vertex 14.2725 -1.46946 -1
      vertex 14.0724 -1.71137 -1
    endloop
  endfacet
  facet normal -0.684546 0.72897 0
    outer loop
      vertex 14.0724 -1.71137 1
      vertex 14.0724 -1.71137 -1
      vertex 13.8436 -1.92628 1
    endloop
  endfacet
  facet normal -0.684546 0.72897 0
    outer loop
      vertex 13.8436 -1.92628 1
      vertex 14.0724 -1.71137 -1
      vertex 13.8436 -1.92628 -1
    endloop
  endfacet
  facet normal -0.587786 0.809017 0
    outer loop
      vertex 13.8436 -1.92628 1
      vertex 13.8436 -1.92628 -1
      vertex 13.5896 -2.11082 1
    endloop
  endfacet
  facet normal -0.587786 0.809017 0
    outer loop
      vertex 13.5896 -2.11082 1
      vertex 13.8436 -1.92628 -1
      vertex 13.5896 -2.11082 -1
    endloop
  endfacet
  facet normal -0.481754 0.876307 0
    outer loop
      vertex 13.5896 -2.11082 1
      vertex 13.5896 -2.11082 -1
      vertex 13.3144 -2.26207 1
    endloop
  endfacet
  facet normal -0.481754 0.876307 0
    outer loop
      vertex 13.3144 -2.26207 1
      vertex 13.5896 -2.11082 -1
      vertex 13.3144 -2.26207 -1
    endloop
  endfacet
  facet normal -0.368122 0.929777 0
    outer loop
      vertex 13.3144 -2.26207 1
      vertex 13.3144 -2.26207 -1
      vertex 13.0225 -2.37764 1
    endloop
  endfacet
  facet normal -0.368122 0.929777 0
    outer loop
      vertex 13.0225 -2.37764 1
      vertex 13.3144 -2.26207 -1
      vertex 13.0225 -2.37764 -1
    endloop
  endfacet
  facet normal -0.248691 0.968583 0
    outer loop
      vertex 13.0225 -2.37764 1
      vertex 13.0225 -2.37764 -1
      vertex 12.7185 -2.45572 1
    endloop
  endfacet
  facet normal -0.248691 0.968583 0
    outer loop
      vertex 12.7185 -2.45572 1
      vertex 13.0225 -2.37764 -1
      vertex 12.7185 -2.45572 -1
    endloop
  endfacet
  facet normal -0.125334 0.992115 0
    outer loop
      vertex 12.7185 -2.45572 1
      vertex 12.7185 -2.45572 -1
      vertex 12.407 -2.49507 1
    endloop
  endfacet
  facet normal -0.125334 0.992115 0
    outer loop
      vertex 12.407 -2.49507 1
      vertex 12.7185 -2.45572 -1
      vertex 12.407 -2.49507 -1
    endloop
  endfacet
  facet normal 0 1 0
    outer loop
      vertex 12.407 -2.49507 1
      vertex 12.407 -2.49507 -1
      vertex 12.25 -2.49507 1
    endloop
  endfacet
  facet normal 0 1 0
    outer loop
      vertex 12.25 -2.49507 1
      vertex 12.407 -2.49507 -1
      vertex 12.25 -2.49507 -1
    endloop
  endfacet
  facet normal -1 0 0
    outer loop
      vertex 12.25 -2.49507 1
      vertex 12.25 -2.49507 -1
      vertex 12.25 -2.5 1
    endloop
  endfacet
  facet normal -1 0 0
    outer loop
      vertex 12.25 -2.5 1
      vertex 12.25 -2.49507 -1
      vertex 12.25 -2.5 -1
    endloop
  endfacet
  facet normal 0 1 0
    outer loop
      vertex 12.25 -2.5 1
      vertex 12.25 -2.5 -1
      vertex -12.25 -2.5 1
    endloop
  endfacet
  facet normal 0 1 0
    outer loop
      vertex -12.25 -2.5 1
      vertex 12.25 -2.5 -1
      vertex -12.25 -2.5 -1
    endloop
  endfacet
  facet normal 1 0 0
    outer loop
      vertex -12.25 -2.49507 -1
      vertex -12.25 -2.49507 1
      vertex -12.25 -2.5 1
    endloop
  endfacet
  facet normal 1 0 0
    outer loop
      vertex -12.25 -2.5 -1
      vertex -12.25 -2.49507 -1
      vertex -12.25 -2.5 1
    endloop
  endfacet
  facet normal 0 1 0
    outer loop
      vertex -12.25 -2.49507 1
      vertex -12.25 -2.49507 -1
      vertex -12.407 -2.49507 1
    endloop
  endfacet
  facet normal 0 1 0
    outer loop
      vertex -12.407 -2.49507 1
      vertex -12.25 -2.49507 -1
      vertex -12.407 -2.49507 -1
    endloop
  endfacet
  facet normal 0.125334 0.992115 0
    outer loop
      vertex -12.407 -2.49507 1
      vertex -12.407 -2.49507 -1
      vertex -12.7185 -2.45572 1
    endloop
  endfacet
  facet normal 0.125334 0.992115 0
    outer loop
      vertex -12.7185 -2.45572 1
      vertex -12.407 -2.49507 -1
      vertex -12.7185 -2.45572 -1
    endloop
  endfacet
  facet normal 0.248691 0.968583 0
    outer loop
      vertex -12.7185 -2.45572 1
      vertex -12.7185 -2.45572 -1
      vertex -13.0225 -2.37764 1
    endloop
  endfacet
  facet normal 0.248691 0.968583 0
    outer loop
      vertex -13.0225 -2.37764 1
      vertex -12.7185 -2.45572 -1
      vertex -13.0225 -2.37764 -1
    endloop
  endfacet
  facet normal 0.368122 0.929777 0
    outer loop
      vertex -13.0225 -2.37764 1
      vertex -13.0225 -2.37764 -1
      vertex -13.3144 -2.26207 1
    endloop
  endfacet
  facet normal 0.368122 0.929777 0
    outer loop
      vertex -13.3144 -2.26207 1
      vertex -13.0225 -2.37764 -1
      vertex -13.3144 -2.26207 -1
    endloop
  endfacet
  facet normal 0.481754 0.876307 0
    outer loop
      vertex -13.3144 -2.26207 1
      vertex -13.3144 -2.26207 -1
      vertex -13.5896 -2.11082 1
    endloop
  endfacet
  facet normal 0.481754 0.876307 0
    outer loop
      vertex -13.5896 -2.11082 1
      vertex -13.3144 -2.26207 -1
      vertex -13.5896 -2.11082 -1
    endloop
  endfacet
  facet normal 0.587786 0.809017 0
    outer loop
      vertex -13.5896 -2.11082 1
      vertex -13.5896 -2.11082 -1
      vertex -13.8436 -1.92628 1
    endloop
  endfacet
  facet normal 0.587786 0.809017 0
    outer loop
      vertex -13.8436 -1.92628 1
      vertex -13.5896 -2.11082 -1
      vertex -13.8436 -1.92628 -1
    endloop
  endfacet
  facet normal 0.684546 0.72897 0
    outer loop
      vertex -13.8436 -1.92628 1
      vertex -13.8436 -1.92628 -1
      vertex -14.0724 -1.71137 1
    endloop
  endfacet
  facet normal 0.684546 0.72897 0
    outer loop
      vertex -14.0724 -1.71137 1
      vertex -13.8436 -1.92628 -1
      vertex -14.0724 -1.71137 -1
    endloop
  endfacet
  facet normal 0.770515 0.637422 0
    outer loop
      vertex -14.2725 -1.46946 1
      vertex -14.0724 -1.71137 1
      vertex -14.0724 -1.71137 -1
    endloop
  endfacet
  facet normal 0.770515 0.637422 0
    outer loop
      vertex -14.2725 -1.46946 -1
      vertex -14.2725 -1.46946 1
      vertex -14.0724 -1.71137 -1
    endloop
  endfacet
  facet normal 0.844327 0.535829 0
    outer loop
      vertex -14.4408 -1.20438 1
      vertex -14.2725 -1.46946 1
      vertex -14.2725 -1.46946 -1
    endloop
  endfacet
  facet normal 0.844327 0.535829 0
    outer loop
      vertex -14.4408 -1.20438 -1
      vertex -14.4408 -1.20438 1
      vertex -14.2725 -1.46946 -1
    endloop
  endfacet
  facet normal 0.904828 0.425778 0
    outer loop
      vertex -14.5744 -0.920311 1
      vertex -14.4408 -1.20438 1
      vertex -14.4408 -1.20438 -1
    endloop
  endfacet
  facet normal 0.904828 0.425778 0
    outer loop
      vertex -14.5744 -0.920311 -1
      vertex -14.5744 -0.920311 1
      vertex -14.4408 -1.20438 -1
    endloop
  endfacet
  facet normal -1 0 0
    outer loop
      vertex -15.25 -0.7 1
      vertex -15.25 -0.7 3.7
      vertex -15.25 0.7 1
    endloop
  endfacet
  facet normal -1 0 0
    outer loop
      vertex -15.25 0.7 1
      vertex -15.25 -0.7 3.7
      vertex -15.25 0.7 3.7
    endloop
  endfacet
  facet normal 0 -1 0
    outer loop
      vertex -14.646 -0.7 2
      vertex 14.646 -0.7 2
      vertex -15.75 -0.7 8
    endloop
  endfacet
  facet normal 0 -1 0
    outer loop
      vertex -15.75 -0.7 8
      vertex -15.75 -0.7 3.7
      vertex -15.25 -0.7 3.7
    endloop
  endfacet
  facet normal 0 -1 0
    outer loop
      vertex -14.646 -0.7 1
      vertex -15.75 -0.7 8
      vertex -15.25 -0.7 3.7
    endloop
  endfacet
  facet normal 0 -1 0
    outer loop
      vertex -15.25 -0.7 1
      vertex -14.646 -0.7 1
      vertex -15.25 -0.7 3.7
    endloop
  endfacet
  facet normal 0 -1 0
    outer loop
      vertex -14.646 -0.7 1
      vertex -14.646 -0.7 2
      vertex -15.75 -0.7 8
    endloop
  endfacet
  facet normal 0 -1 0
    outer loop
      vertex 14.646 -0.7 2
      vertex 15.25 -0.7 3.7
      vertex -15.75 -0.7 8
    endloop
  endfacet
  facet normal 0 -1 0
    outer loop
      vertex 15.25 -0.7 3.7
      vertex 15.75 -0.7 3.7
      vertex -15.75 -0.7 8
    endloop
  endfacet
  facet normal 0 -1 0
    outer loop
      vertex 14.646 -0.7 1
      vertex 15.25 -0.7 1
      vertex 14.646 -0.7 2
    endloop
  endfacet
  facet normal 0 -1 0
    outer loop
      vertex 15.25 -0.7 1
      vertex 15.25 -0.7 3.7
      vertex 14.646 -0.7 2
    endloop
  endfacet
  facet normal 0 -1 0
    outer loop
      vertex 15.75 -0.7 3.7
      vertex 15.25 -0.7 8
      vertex -15.25 -0.7 8
    endloop
  endfacet
  facet normal 0 -1 0
    outer loop
      vertex 15.75 -0.7 3.7
      vertex 15.75 -0.7 8
      vertex 15.25 -0.7 8
    endloop
  endfacet
  facet normal 0 -1 0
    outer loop
      vertex 15.75 -0.7 3.7
      vertex -15.25 -0.7 8
      vertex -15.75 -0.7 8
    endloop
  endfacet
  facet normal 1 0 0
    outer loop
      vertex 15.25 -0.7 3.7
      vertex 15.25 -0.7 1
      vertex 15.25 0.7 1
    endloop
  endfacet
  facet normal 1 0 0
    outer loop
      vertex 15.25 0.7 3.7
      vertex 15.25 -0.7 3.7
      vertex 15.25 0.7 1
    endloop
  endfacet
  facet normal 0 1 0
    outer loop
      vertex -15.75 0.7 3.7
      vertex -15.75 0.7 8
      vertex -15.25 0.7 3.7
    endloop
  endfacet
  facet normal 0 1 0
    outer loop
      vertex -15.25 0.7 3.7
      vertex -15.75 0.7 8
      vertex -15.25 0.7 8
    endloop
  endfacet
  facet normal 0 1 0
    outer loop
      vertex -15.25 0.7 8
      vertex 15.25 0.7 8
      vertex -15.25 0.7 3.7
    endloop
  endfacet
  facet normal 0 1 0
    outer loop
      vertex -15.25 0.7 3.7
      vertex 15.25 0.7 8
      vertex 15.75 0.7 8
    endloop
  endfacet
  facet normal 0 1 0
    outer loop
      vertex 15.25 0.7 3.7
      vertex 15.75 0.7 8
      vertex 15.75 0.7 3.7
    endloop
  endfacet
  facet normal 0 1 0
    outer loop
      vertex -15.25 0.7 3.7
      vertex 15.75 0.7 8
      vertex 15.25 0.7 3.7
    endloop
  endfacet
  facet normal 0 1 0
    outer loop
      vertex 15.25 0.7 3.7
      vertex 15.25 0.7 1
      vertex -15.25 0.7 3.7
    endloop
  endfacet
  facet normal 0 1 0
    outer loop
      vertex -15.25 0.7 3.7
      vertex 15.25 0.7 1
      vertex -15.25 0.7 1
    endloop
  endfacet
  facet normal 0 0 -1
    outer loop
      vertex -15.75 -0.7 3.7
      vertex -15.75 0.7 3.7
      vertex -15.25 -0.7 3.7
    endloop
  endfacet
  facet normal 0 0 -1
    outer loop
      vertex -15.25 -0.7 3.7
      vertex -15.75 0.7 3.7
      vertex -15.25 0.7 3.7
    endloop
  endfacet
  facet normal -1 0 0
    outer loop
      vertex -15.75 -0.7 3.7
      vertex -15.75 -0.7 8
      vertex -15.75 0.7 3.7
    endloop
  endfacet
  facet normal -1 0 0
    outer loop
      vertex -15.75 0.7 3.7
      vertex -15.75 -0.7 8
      vertex -15.75 0.7 8
    endloop
  endfacet
  facet normal 0 0 1
    outer loop
      vertex -15.75 0.7 8
      vertex -15.75 -0.7 8
      vertex -15.25 -0.7 8
    endloop
  endfacet
  facet normal 0 0 1
    outer loop
      vertex -15.25 0.7 8
      vertex -15.75 0.7 8
      vertex -15.25 -0.7 8
    endloop
  endfacet
  facet normal 0 0 1
    outer loop
      vertex -15.25 0.7 8
      vertex -15.25 -0.7 8
      vertex 15.25 -0.7 8
    endloop
  endfacet
  facet normal 0 0 1
    outer loop
      vertex 15.25 0.7 8
      vertex -15.25 0.7 8
      vertex 15.25 -0.7 8
    endloop
  endfacet
  facet normal 0 0 1
    outer loop
      vertex 15.25 0.7 8
      vertex 15.25 -0.7 8
      vertex 15.75 -0.7 8
    endloop
  endfacet
  facet normal 0 0 1
    outer loop
      vertex 15.75 0.7 8
      vertex 15.25 0.7 8
      vertex 15.75 -0.7 8
    endloop
  endfacet
  facet normal 1 0 0
    outer loop
      vertex 15.75 -0.7 8
      vertex 15.75 -0.7 3.7
      vertex 15.75 0.7 3.7
    endloop
  endfacet
  facet normal 1 0 0
    outer loop
      vertex 15.75 0.7 8
      vertex 15.75 -0.7 8
      vertex 15.75 0.7 3.7
    endloop
  endfacet
  facet normal 0 0 -1
    outer loop
      vertex 15.25 -0.7 3.7
      vertex 15.25 0.7 3.7
      vertex 15.75 -0.7 3.7
    endloop
  endfacet
  facet normal 0 0 -1
    outer loop
      vertex 15.75 -0.7 3.7
      vertex 15.25 0.7 3.7
      vertex 15.75 0.7 3.7
    endloop
  endfacet
endsolid OpenSCAD_Model
